<?xml version="1.0" encoding="UTF-8"?>
<svg width="128pt" height="128pt" version="1.1" viewBox="0 0 128 128" xmlns="http://www.w3.org/2000/svg">
 <path d="m100.58 92.93-24.582-6.4727v-1.8125c1.1719-0.92578 1.9961-2.2539 2.2109-3.793 1.4883-10.613 10.477-13.965 14.273-14.914l1.5156-0.37891v-3.5586h2c3.3086 0 6-2.6914 6-6v-14c0-3.3086-2.6914-6-6-6h-2v-4c0-15.867-12.391-28.863-28-29.898v-0.10156h-2c-18.746 0-34 15.254-34 34v16c0 4.8594 3.4883 8.9102 8.0938 9.8086 0.64062 9.2383 6.1055 17.152 13.906 21.234v3.418l-24.582 6.4688c-7.8984 2.0781-13.418 9.2344-13.418 17.406v15.664h100v-15.664c0-8.1719-5.5195-15.328-13.418-17.406zm9.418 17.406v0.27344c-1.8789 0.89453-3.9258 1.3906-6 1.3906-7.7188 0-14-6.2812-14-14 0-1.2188 0.17188-2.4219 0.48438-3.5938l9.0742 2.3867c6.1484 1.6172 10.441 7.1875 10.441 13.543zm-23.379-16.945c-0.40234 1.5039-0.62109 3.0469-0.62109 4.6094 0 6.2266 3.1797 11.723 8 14.957v9.043h-10v-6c0-5.5156-4.4844-10-10-10h-8v-8h4c3.3086 0 6-2.6914 6-6v-1.4062zm-14.621-3.8477v2.457c0 1.1055-0.89453 2-2 2h-4v-8h6zm-6 28.457h6v4h-6zm0-4v-4h8c3.3086 0 6 2.6914 6 6v6h-4v-8zm30-74c1.1055 0 2 0.89453 2 2v14c0 1.1055-0.89453 2-2 2h-2v-18zm-6-8v30.48c-8.8203 2.7148-14.531 9.1367-15.746 17.82-0.13672 0.96875-1.043 1.6992-2.1055 1.6992h-6.1484v-48h2.2969c6.5586 0 12.316-4.6523 13.691-11.066l1.6875-7.8789c3.9297 4.5547 6.3242 10.473 6.3242 16.945zm-9.7109-20.234-2.2109 10.328c-0.98047 4.582-5.0938 7.9062-9.7812 7.9062h-2.2969v-4h4v-4h-4v-4h8v-4h-8v-7.8984c5.3867 0.41406 10.316 2.4609 14.289 5.6641zm-46.289 40.234c0-2.625 1.7031-4.8359 4.0547-5.6484-0.015626 0.28516-0.054688 0.57031-0.054688 0.85938v10.422c-2.3203-0.82812-4-3.0273-4-5.6328zm4.8828-9.8867c-1.8242 0.20703-3.4922 0.88281-4.8828 1.9375v-8.0508c0-15.871 12.387-28.898 28-29.934v35.836c-5.1562-0.46094-9.9492-2.6797-13.656-6.3867l-2.0898-2.0898-1.3672 0.91016c-2.8398 1.8945-4.9102 4.6445-6.0039 7.7773zm3.1172 17.887v-12.789c0-3.3008 1.4062-6.3984 3.8281-8.5586 4.4141 4.2773 10.09 6.793 16.172 7.2539v25.812c-3.4414-0.89453-6-3.9961-6-7.7148h-4c0 5.9336 4.3359 10.863 10 11.82v6.0781c-11.195-1.0195-20-10.445-20-21.902zm20 25.898v5.9375l-6-4.8008v-2.3086c1.9102 0.62109 3.9258 1.0117 6 1.1719zm-8.4648 4.293 8.4648 6.7695v0.10156l-8.8555 7.3789-3.4258-13.246zm-35.535 20.145c0-6.3555 4.293-11.922 10.438-13.539l17.418-4.5859 4.9961 19.348 11.148-9.2852v19.727h-27.348l3.2734-11.453-3.8477-1.0977-3.5898 12.551h-12.488zm80 11.664v-7.0508c1.8789 0.66797 3.8945 1.0508 6 1.0508 2.0508 0 4.0742-0.39062 6-1.0781v7.0781z"/>
 <path d="m58 52c0-3.3086-2.6914-6-6-6s-6 2.6914-6 6 2.6914 6 6 6 6-2.6914 6-6zm-8 0c0-1.1055 0.89453-2 2-2s2 0.89453 2 2-0.89453 2-2 2-2-0.89453-2-2z"/>
 <path d="m81.125 44h-6.2461c-1.3242 0-2.6133 0.58984-3.5312 1.6211-1.8008 2.0312-1.8008 5.207 0 7.2383l3.125 3.5195c0.91016 1.0273 2.1992 1.6211 3.5273 1.6211s2.6172-0.59375 3.5312-1.6211l3.125-3.5195c1.8008-2.0312 1.8008-5.207 0-7.2383l-0.003906-0.003906c-0.91797-1.0273-2.2031-1.6172-3.5273-1.6172zm0.53516 6.2031-3.125 3.5195c-0.32031 0.36328-0.75391 0.36328-1.0742 0l-3.125-3.5195c-0.44922-0.50391-0.44922-1.4219-0.003907-1.9258 0.16016-0.17969 0.35156-0.28125 0.54297-0.28125h6.2461c0.19141 0 0.37891 0.10156 0.54297 0.28125 0.44531 0.50781 0.44531 1.4258-0.003906 1.9258z"/>
</svg>
