<?xml version="1.0" encoding="UTF-8"?>
<svg width="128pt" height="128pt" version="1.1" viewBox="0 0 128 128" xmlns="http://www.w3.org/2000/svg">
 <path d="m82.59 55.906c3.7188 0.41797 6.9766 1.0586 6.9766 1.0586-7.418-4.0781-7.2266-18.715-7.2266-18.715 1.3008-28.348-17.406-26.863-17.406-26.863l-0.019532 0.042969-0.015624-0.042969s-18.707-1.4805-17.41 26.867c0 0 0.007813 0.77734-0.066406 2.0195-0.48438-0.47656-0.89844-0.99219-1.25-1.5352 0.41797-1.4492 0.66797-3.2227 0.66797-5.1406 0-2.1797-0.32031-4.1758-0.84375-5.7148 2.1797-10.055 9.9336-17.523 19.172-17.523 9.2344 0 16.988 7.4688 19.168 17.52-0.52734 1.543-0.84375 3.5352-0.84375 5.7148 0 4.8711 1.5859 8.8242 3.5391 8.8242s3.5391-3.9531 3.5391-8.8242c0-4.1445-1.1484-7.6133-2.6914-8.5625-3.1523-10.902-12.133-18.801-22.707-18.801-10.578 0-19.559 7.8984-22.711 18.801-1.5469 0.94922-2.6914 4.418-2.6914 8.5625 0 4.8711 1.5859 8.8242 3.5391 8.8242 0.55469 0 1.0781-0.32812 1.5469-0.89453 0.64453 0.74219 1.3945 1.4219 2.25 2.0312-0.64453 4.6172-2.3477 10.941-6.832 13.41 0 0 1.9961-0.13672 4.668-0.1875-6.3164 2.8203-11.02 8.5742-12.406 15.531h64.777c-1.5625-7.7734-7.2656-14.055-14.723-16.402zm-12.66 5.6836-5.0156 8.1445-5.0117-8.1445c-3.6445-0.82812-6.457-2.5273-7.5898-4.625 2.9375 0.25391 5.4297 0.79297 6.0742 1.8516l-2.7617-6.1562c2.6445 2.6406 5.8438 4.1875 9.2891 4.1875 3.3633 0 6.5-1.4766 9.1094-4.0039l-1.9258 4.0039c0.64453-1.0625 3.0664-1.3516 5.9141-1.2773-0.44922 2.7266-3.6602 5.0156-8.082 6.0195zm9.375-26.09c-0.28125 3.7539-1.2383 7.207-2.6836 10.105-2.6328 5.2773-6.8945 8.707-11.707 8.707-4.5977 0-8.6914-3.1328-11.344-8.0117 1.3359 0.27344 2.7188 0.42969 4.1406 0.42969 0.46484 0 0.93359-0.03125 1.3984-0.0625 0.59766 0.80859 1.6133 1.2656 2.6719 1.082 1.4961-0.26172 2.5-1.6836 2.2422-3.1797-0.26172-1.4961-1.6836-2.5-3.1797-2.2383-0.94531 0.16406-1.6875 0.78906-2.0469 1.6055-2.3516 0.13281-4.6289-0.16406-6.6719-0.87109-0.78516-2.1562-1.3242-4.5352-1.5547-7.0547 0 0 5.7891-0.96094 9.2461-2.3242 0 0 6.2656-2.0938 13.918-7.6055 0.039063-0.027343 0.074219-0.054687 0.11328-0.078125 0 0 0.13672 0.19531 0.33594 0.53125 0.66406 1.1367 2.0859 4.5312-0.60156 6.082l4.8984 0.625h0.089843l0.89453 0.16406c-0.007813 0.71094-0.058594 1.4102-0.16016 2.0938z"/>
 <path d="m99.484 118.99h-69.137c-0.67188 0-1.2188 0.54687-1.2188 1.2188 0 0.67187 0.54688 1.2148 1.2188 1.2148h69.137c0.67188 0 1.2188-0.54297 1.2188-1.2148 0-0.67188-0.54688-1.2188-1.2188-1.2188z"/>
 <path d="m34.457 118h60.918c2.8516 0 5.1758-2.3203 5.168-5.1289l6.0977-35.379c0-2.8555-2.3242-5.1797-5.1758-5.1797h-73.098c-2.8555 0-5.1797 2.3203-5.1758 5.2305l6.0859 35.281c0.003906 2.8555 2.3242 5.1758 5.1797 5.1758zm-6.0898-45.074h73.098c2.5156 0 4.5664 2.0508 4.5742 4.5156l-6.0977 35.383c0 2.5195-2.0508 4.5703-4.5664 4.5703h-60.918c-2.5195 0-4.5703-2.0547-4.5742-4.6211l-6.0859-35.281c0-2.5195 2.0508-4.5664 4.5703-4.5664z"/>
 <path d="m64.914 96.734c1.2109 0 2.1914-0.97656 2.1914-2.1914 0-1.207-0.98047-2.1875-2.1914-2.1875-1.207 0-2.1914 0.98438-2.1914 2.1875 0 1.2148 0.98438 2.1914 2.1914 2.1914z"/>
</svg>
